<?xml version="1.0" encoding="utf-8"?>
<!-- Generator: Adobe Illustrator 16.0.0, SVG Export Plug-In . SVG Version: 6.00 Build 0)  -->
<!DOCTYPE svg PUBLIC "-//W3C//DTD SVG 1.1//EN" "http://www.w3.org/Graphics/SVG/1.1/DTD/svg11.dtd">
<svg version="1.1" xmlns="http://www.w3.org/2000/svg" xmlns:xlink="http://www.w3.org/1999/xlink" x="0px" y="0px" width="282px"
	 height="282px" viewBox="0 0 500 498" enable-background="new 0 0 500 498" xml:space="preserve">

<g id="legs">
	<g id="selections">
		<path id="ankle_right" fill="#DDC9B2" d="M182.745,404.983c2.535,20.445,2.666,33.937,1.379,43.641
			c8.167,1.591,22.652,1.714,37.565-3.711c-0.426-1.483-0.817-2.946-1.131-4.357c-1.128-5.08-1.474-19.261-0.393-34.416
			C203.015,401.569,189.754,403.295,182.745,404.983z"
			/>

		<path id="calf_right" fill="#DDC9B2" d="M168.812,285.486c-0.446,4.585-0.655,9.869-0.436,16.078c0,0,4.012,38.634,11.037,80.782
			c1.397,8.386,2.493,15.884,3.331,22.637c7.009-1.688,20.27-3.414,37.421,1.156c0.841-11.795,2.544-24.18,5.414-33.325
			c5.858-18.67,12.303-49.432,12.186-62.962c-0.03-3.596-0.231-8.307-0.491-13.532C210.474,300.589,182.81,291.328,168.812,285.486z"
			/>

		<path id="foot_right" fill="#DDC9B2" d="M184.124,448.624c-0.425,3.2-1.001,5.997-1.698,8.489
			c-3.511,12.543-23.592,53.163-23.586,59.714c0.012,9.655,13.137,11.055,17.699,21.451c0.882,2.005,10.361,5.751,16.424,2.634
			c17.564-9.031,17.564-17.064,21.074-31.612c3.512-14.553,11.537-35.634,12.543-42.148c0.849-5.508-2.589-14.224-4.891-22.238
			C206.776,450.338,192.291,450.215,184.124,448.624z"
			/>

		<path id="thigh_right" fill="#DDC9B2" d="M247.893,88.125l-35.701-38.963c0-8.07-1.746-15.811-4.584-23.06l-1.245,6.591
			c0,0-6.321,48.466-46.05,84.652l-2.54,1.262l3.629,38.517c1.891,13.435,7.165,38.054,10.334,61.841
			c15.371-1.167,49.335-2.498,68.245,6.289c2.026-13.496,4.1-29.467,4.331-45.438C244.748,149.705,247.893,89.835,247.893,88.125z"
			/>

		<path id="knee_right" fill="#DDC9B2" d="M171.735,218.965c1.83,13.748,2.961,27.219,2.321,38.087
			c-0.424,7.198-3.904,14.654-5.244,28.435c13.997,5.842,41.661,15.103,68.462,10.834c-0.717-14.434-1.895-32.827-1.254-42.759
			c0.409-6.352,2.166-16.36,3.96-28.308C221.07,216.467,187.106,217.798,171.735,218.965z"
			/>

		<path id="ankle_left" fill="#DDC9B2" d="M317.312,404.983c-2.535,20.445-2.666,33.937-1.379,43.641
			c-8.167,1.591-22.652,1.714-37.565-3.711c0.426-1.483,0.817-2.946,1.131-4.357c1.128-5.08,1.474-19.261,0.393-34.416
			C297.042,401.569,310.303,403.295,317.312,404.983z"
			/>

		<path id="calf_left" fill="#DDC9B2" d="M331.244,285.486c0.446,4.585,0.655,9.869,0.436,16.078c0,0-4.012,38.634-11.037,80.782
			c-1.397,8.386-2.493,15.884-3.331,22.637c-7.009-1.688-20.27-3.414-37.421,1.156c-0.841-11.795-2.544-24.18-5.414-33.325
			c-5.858-18.67-12.303-49.432-12.186-62.962c0.03-3.596,0.231-8.307,0.491-13.532C289.583,300.589,317.247,291.328,331.244,285.486z"
			/>

		<path id="foot_left" fill="#DDC9B2" d="M315.933,448.624c0.425,3.2,1.001,5.997,1.698,8.489
			c3.511,12.543,23.592,53.163,23.586,59.714c-0.012,9.655-13.137,11.055-17.699,21.451c-0.882,2.005-10.361,5.751-16.424,2.634
			c-17.564-9.031-17.564-17.064-21.074-31.612c-3.512-14.553-11.537-35.634-12.543-42.148c-0.849-5.508,2.589-14.224,4.891-22.238
			C293.28,450.338,307.766,450.215,315.933,448.624z"
			/>

		<path id="thigh_left" fill="#DDC9B2" d="M252.164,88.125l35.701-38.963c0-8.07,1.746-15.811,4.584-23.06l1.245,6.591
			c0,0,6.321,48.466,46.05,84.652l2.54,1.262l-3.629,38.517c-1.891,13.435-7.165,38.054-10.334,61.841
			c-15.371-1.167-49.335-2.498-68.245,6.289c-2.026-13.496-4.1-29.467-4.331-45.438C255.309,149.705,252.164,89.835,252.164,88.125z"
			/>

		<path id="knee_left" fill="#DDC9B2" d="M328.321,218.965c-1.83,13.748-2.961,27.219-2.321,38.087
			c0.424,7.198,3.904,14.654,5.244,28.435c-13.997,5.842-41.661,15.103-68.462,10.834c0.717-14.434,1.895-32.827,1.254-42.759
			c-0.409-6.352-2.166-16.36-3.96-28.308C278.986,216.467,312.95,217.798,328.321,218.965z"
			/>
	</g>

	<g id="Features">
		<path id="hand_left" fill="#EFE5DA" d="M405.631,14.647c5.457,14.705,8.526,27.592,6.484,35.25
			c-4.014,15.046,5.461,46.473,10.71,63.787c1.331,4.375,2.827,7.695,3.911,9.923c0.713,1.469,1.742,2.419,3.131,2.044
			c1.275-0.34,1.664-2.064,1.38-3.69c-0.494-2.796-1.292-6.821-1.956-10.763c-0.824-4.835-2.789-13.457-1.985-16.373
			c0.138-0.505,1.097-0.764,1.392-0.274c1.549,2.575,4.587,12.062,7.129,20.476c1.91,6.334,4.115,12.377,5.654,16.199
			c0.945,2.355,2.357,3.73,3.841,3.234c1.606-0.543,2.262-2.442,1.776-5.241c-0.612-3.507-1.734-8.444-2.982-13.83
			c-2.008-8.69-4.541-21.116-4.074-24.405c0.064-0.469,0.902-0.607,1.229-0.07c1.861,3.062,5.189,15.01,8.082,24.684
			c2.045,6.83,4.43,13.373,6.141,17.83c1.197,3.109,3.156,4.625,4.643,4.054c1.44-0.547,2.377-2.728,1.779-5.558
			c-0.998-4.727-2.684-11.756-4.523-19.1c-2.551-10.192-4.524-21.812-4.547-25.396c-0.006-0.666,1.057-0.935,1.598-0.235
			c1.935,2.493,4.703,9.831,7.061,17.823c1.506,5.096,4.337,12.789,6.03,17.336c0.745,2.013,2.222,3.353,3.548,2.85
			c1.258-0.476,2.137-1.986,1.894-4.052c-0.524-4.472-2.013-11.917-3.407-19.007c-2.17-11.023-4.834-21.121-5.605-25.609
			c-0.957-5.553-2.975-11.725-1.194-13.047c1.779-1.318,9.499,8.854,14.2,11.396c7.109,3.859,13.568-0.787,10.359-2.154
			c-3.21-1.367-19.744-26.874-23.762-32.665c-4.021-5.792-15.587-7.941-18.271-12.601c-1.104-1.924-2.813-8.064-4.523-22.592
			c-0.178-1.509-0.387-3.146-0.615-4.87h-40.369C401.824,4.805,403.799,9.712,405.631,14.647z"/>
		<path id="hand_right" fill="#EFE5DA" d="M22.908,74.882c4.699-2.543,12.42-12.715,14.199-11.396
			c1.779,1.322-0.238,7.494-1.195,13.047c-0.771,4.488-3.434,14.586-5.604,25.609c-1.395,7.09-2.884,14.535-3.408,19.007
			c-0.242,2.065,0.637,3.576,1.893,4.052c1.326,0.503,2.804-0.837,3.549-2.85c1.693-4.547,4.523-12.24,6.031-17.336
			c2.357-7.992,5.125-15.33,7.06-17.823c0.54-0.699,1.604-0.431,1.597,0.235c-0.021,3.584-1.996,15.204-4.547,25.396
			c-1.84,7.344-3.523,14.373-4.521,19.1c-0.599,2.83,0.338,5.011,1.778,5.558c1.487,0.571,3.445-0.944,4.643-4.054
			c1.712-4.457,4.095-11,6.141-17.83c2.893-9.674,6.22-21.621,8.081-24.684c0.328-0.537,1.164-0.398,1.23,0.07
			c0.465,3.289-2.066,15.715-4.076,24.405c-1.248,5.386-2.369,10.323-2.982,13.83c-0.484,2.799,0.171,4.698,1.777,5.241
			c1.484,0.496,2.896-0.879,3.842-3.234c1.538-3.822,3.743-9.865,5.654-16.199c2.541-8.413,5.578-17.9,7.128-20.476
			c0.295-0.489,1.255-0.23,1.392,0.274c0.803,2.916-1.162,11.538-1.984,16.373c-0.664,3.941-1.463,7.967-1.957,10.763
			c-0.284,1.626,0.104,3.351,1.38,3.69c1.388,0.375,2.419-0.575,3.131-2.044c1.085-2.228,2.58-5.548,3.911-9.923
			c5.248-17.314,14.725-48.741,10.71-63.787c-2.042-7.658,1.028-20.545,6.484-35.25C96.075,9.712,98.049,4.805,100.09,0H59.72
			c-0.229,1.724-0.437,3.361-0.614,4.87c-1.711,14.527-3.42,20.668-4.524,22.592c-2.685,4.659-14.251,6.809-18.271,12.601
			c-4.019,5.791-20.553,31.298-23.764,32.665C9.338,74.095,15.798,78.741,22.908,74.882z"/>
		<path id="body" fill="#EFE5DA" d="M293.694,32.693c0,0,6.321,48.466,46.05,84.652l2.54,1.262
			c1.704-23.507,2.881-50.32,3.173-67.812c0.234-14.085-2.029-33.502-4.541-50.795H158.958c-2.511,17.293-4.775,36.71-4.541,50.795
			c0.291,17.405,1.662,44.387,3.355,67.812l2.54-1.262c39.729-36.187,46.05-84.652,46.05-84.652l1.245-6.591
			c2.838,7.249,4.584,14.989,4.584,23.06l35.701,38.963c0,0,0.502-1.038,2.001-1.038s2.271,1.038,2.271,1.038l35.701-38.963
			c0-8.07,1.746-15.811,4.584-23.06L293.694,32.693z"/>
	</g>
</g>

</svg>
