<?xml version="1.0" encoding="utf-8"?>
<!-- Generator: Adobe Illustrator 16.0.0, SVG Export Plug-In . SVG Version: 6.00 Build 0)  -->
<!DOCTYPE svg PUBLIC "-//W3C//DTD SVG 1.1//EN" "http://www.w3.org/Graphics/SVG/1.1/DTD/svg11.dtd">
<svg version="1.1" xmlns="http://www.w3.org/2000/svg" xmlns:xlink="http://www.w3.org/1999/xlink" x="0px" y="0px" width="500px"
	 height="503px" viewBox="0 0 500 503" enable-background="new 0 0 500 503" xml:space="preserve">
<g id="Legs">
	<g id="Unselected_5_">
	</g>
	<g id="Selected_5_">
	</g>
	<g id="Features_5_">
	</g>
</g>
<g id="Arm__x28_L_x29_">
	<g id="Unselected_3_">
	</g>
	<g id="Selected_3_">
	</g>
	<g id="Features_3_">
	</g>
</g>
<g id="Arm__x28_R_x29_">
	<g id="Unselected_4_">
	</g>
	<g id="Selected_4_">
	</g>
	<g id="Features_4_">
	</g>
</g>
<g id="Body__x28_B_x29_">
	<g id="Unselected_2_">
		<path id="upper_back_1_" fill="#DDC9B2" d="M261.94,139.801c42.684,0,87.558-19.132,87.558-19.132l0.14-0.064l0.34-1.37
			c-79.896-32.252-84.207-68.535-84.207-68.535h-13.133h-6.088h-13.134c0,0-4.31,36.283-84.206,68.535l0.479,1.435
			c0,0,44.874,19.132,87.558,19.132H261.94z"/>
		<path id="mid_back_1_" fill="#DDC9B2" d="M343.585,155.846l0.44-5.658l5.103-27.524l0.51-2.059l-0.14,0.064
			c0,0-44.874,19.132-87.558,19.132h-24.693c-42.684,0-87.558-19.132-87.558-19.132l5.473,29.519l0.959,5.658
			c0,0,16.501,93.906,16.501,104.896c0,0.948-0.071,1.994-0.194,3.11l1.34,0.584c0,0,25.446,11.479,65.668,11.479h20.316
			c40.222,0,65.668-11.479,65.668-11.479l1.822-0.926c-0.1-0.986-0.159-1.919-0.159-2.769
			C327.083,249.752,343.585,155.846,343.585,155.846z"/>
		<path id="hip_right_3_" fill="#DDC9B2" d="M337.084,304.197c-0.341-3.062-1.609-7.807-3.134-13.163l-1.963,1.006
			c0,0-39.127,14.487-39.127,55.211s50.071,93.748,50.071,93.748l1.971,1.975c1.636-17.667,2.997-35.227,3.183-46.367
			C348.584,366.636,338.084,313.188,337.084,304.197z"/>
		<path id="bottom_2_" fill="#DDC9B2" d="M331.987,292.04l1.963-1.006c-2.604-9.152-5.957-20.098-6.708-27.524l-1.822,0.926
			c0,0-25.446,11.479-65.668,11.479h-9.899h-9.899c-40.222,0-65.668-11.479-65.668-11.479l-1.822-0.926
			c-0.751,7.427-4.104,18.372-6.708,27.524l1.963,1.006c0,0,39.127,14.487,39.127,55.211c0,18.572-10.414,39.701-21.744,57.193
			l1.496,2.389c0,0,19.185,27.248,59.649,27.248l3.606-0.279l3.606,0.279c40.465,0,59.649-27.248,59.649-27.248l1.496-2.389
			c-11.33-17.492-21.744-38.621-21.744-57.193C292.86,306.527,331.987,292.04,331.987,292.04z"/>
		<path id="hip_left_2_" fill="#DDC9B2" d="M162.621,304.197c0.341-3.062,1.609-7.807,3.134-13.163l1.963,1.006
			c0,0,39.127,14.487,39.127,55.211s-50.071,93.748-50.071,93.748l-1.971,1.975c-1.636-17.667-2.997-35.227-3.183-46.367
			C151.121,366.636,161.621,313.188,162.621,304.197z"/>
	</g>
	<g id="Selected_2_">
		<path id="upper_back_2_" fill="#1CAFD5" d="M261.94,139.801c42.684,0,87.558-19.132,87.558-19.132l0.14-0.064l0.34-1.37
			c-79.896-32.252-84.207-68.535-84.207-68.535h-13.133h-6.088h-13.134c0,0-4.31,36.283-84.206,68.535l0.479,1.435
			c0,0,44.874,19.132,87.558,19.132H261.94z"/>
		<path id="mid_back_2_" fill="#1CAFD5" d="M343.585,155.846l0.44-5.658l5.103-27.524l0.51-2.059l-0.14,0.064
			c0,0-44.874,19.132-87.558,19.132h-24.693c-42.684,0-87.558-19.132-87.558-19.132l5.473,29.519l0.959,5.658
			c0,0,16.501,93.906,16.501,104.896c0,0.948-0.071,1.994-0.194,3.11l1.34,0.584c0,0,25.446,11.479,65.668,11.479h20.316
			c40.222,0,65.668-11.479,65.668-11.479l1.822-0.926c-0.1-0.986-0.159-1.919-0.159-2.769
			C327.083,249.752,343.585,155.846,343.585,155.846z"/>
		<path id="hip_right_1_" fill="#1CAFD5" d="M337.084,304.197c-0.341-3.062-1.609-7.807-3.134-13.163l-1.963,1.006
			c0,0-39.127,14.487-39.127,55.211s50.071,93.748,50.071,93.748l1.971,1.975c1.636-17.667,2.997-35.227,3.183-46.367
			C348.584,366.636,338.084,313.188,337.084,304.197z"/>
		<path id="bottom_1_" fill="#1CAFD5" d="M331.987,292.04l1.963-1.006c-2.604-9.152-5.957-20.098-6.708-27.524l-1.822,0.926
			c0,0-25.446,11.479-65.668,11.479h-9.899h-9.899c-40.222,0-65.668-11.479-65.668-11.479l-1.822-0.926
			c-0.751,7.427-4.104,18.372-6.708,27.524l1.963,1.006c0,0,39.127,14.487,39.127,55.211c0,18.572-10.414,39.701-21.744,57.193
			l1.496,2.389c0,0,19.185,27.248,59.649,27.248l3.606-0.279l3.606,0.279c40.465,0,59.649-27.248,59.649-27.248l1.496-2.389
			c-11.33-17.492-21.744-38.621-21.744-57.193C292.86,306.527,331.987,292.04,331.987,292.04z"/>
		<path id="hip_left_1_" fill="#1CAFD5" d="M162.621,304.197c0.341-3.062,1.609-7.807,3.134-13.163l1.963,1.006
			c0,0,39.127,14.487,39.127,55.211s-50.071,93.748-50.071,93.748l-1.971,1.975c-1.636-17.667-2.997-35.227-3.183-46.367
			C151.121,366.636,161.621,313.188,162.621,304.197z"/>
	</g>
	<g id="Features_2_">
		<path id="right_leg" fill="#EFE5DA" d="M342.932,440.999c0,0-14.868-15.745-28.4-36.665l-1.423,2.499
			c0,0-19.185,27.248-59.649,27.248l-3.606-0.279c1.051,0.042,2.102,0.482,2.102,1.195c0,1.424,9.123,68.003,9.123,68.003h77.508
			c0,0,3.54-29.837,6.317-60.026L342.932,440.999z"/>
		<path id="left_leg" fill="#EFE5DA" d="M156.773,440.999c0,0,14.868-15.745,28.4-36.665l1.423,2.499
			c0,0,19.185,27.248,59.649,27.248l3.606-0.279c-1.051,0.042-2.102,0.482-2.102,1.195c0,1.424-9.123,68.003-9.123,68.003H161.12
			c0,0-3.54-29.837-6.317-60.026L156.773,440.999z"/>
		<path id="arms" fill="#EFE5DA" d="M349.978,119.234c-79.896-32.252-84.207-68.535-84.207-68.535h-13.133h-6.088h-13.134
			c0,0-4.31,36.283-84.206,68.535l0.479,1.435l5.473,29.519l0.959,5.658c-2,29.469-20.5,60.939-24.001,88.411
			c0,0-2,27.973-11.501,47.952c-6.442,13.546-20.769,39.979-30.881,67.224c-5.611,15.121-8.769,28.375-6.669,36.251
			c4.128,15.473-5.616,47.792-11.014,65.598c-1.369,4.5-2.907,7.914-4.021,10.205c-0.734,1.51-1.793,2.487-3.221,2.103
			c-1.312-0.351-1.711-2.124-1.419-3.796c0.508-2.877,1.329-7.015,2.012-11.068c0.847-4.973,2.867-13.84,2.042-16.838
			c-0.142-0.52-1.128-0.785-1.432-0.282c-1.594,2.647-4.717,12.405-7.331,21.057c-1.965,6.514-4.231,12.729-5.814,16.659
			c-0.972,2.424-2.424,3.838-3.95,3.328c-1.652-0.561-2.326-2.513-1.827-5.392c0.63-3.605,1.783-8.684,3.066-14.223
			c2.066-8.938,4.67-21.717,4.19-25.098c-0.066-0.481-0.927-0.624-1.264-0.073c-1.914,3.149-5.336,15.436-8.311,25.384
			c-2.104,7.025-4.556,13.755-6.314,18.338c-1.232,3.196-3.247,4.756-4.775,4.168c-1.481-0.561-2.444-2.805-1.829-5.716
			c1.026-4.859,2.758-12.09,4.65-19.642c2.624-10.481,4.653-22.431,4.677-26.118c0.007-0.684-1.087-0.959-1.643-0.241
			c-1.99,2.564-4.837,10.111-7.26,18.33c-1.551,5.241-4.462,13.151-6.203,17.827c-0.767,2.07-2.285,3.448-3.649,2.93
			c-1.294-0.487-2.196-2.042-1.946-4.165c0.539-4.599,2.07-12.256,3.504-19.547c2.231-11.337,4.971-21.722,5.764-26.339
			c0.984-5.708,3.06-12.056,1.229-13.414c-1.831-1.356-9.769,9.104-14.604,11.72c-7.312,3.97-13.955-0.812-10.654-2.218
			c3.302-1.406,20.306-27.637,24.437-33.592c4.135-5.955,16.029-8.167,18.791-12.958c1.137-1.978,2.893-8.292,4.652-23.232
			c2.5-21.23,10.262-64.91,14.512-82.643c4.671-19.492,13.5-26.474,22.501-42.957c3.032-5.553,3.001-19.48,5.001-32.469
			c3.127-20.304,9.033-34.895,9.501-37.462c1.001-5.496-0.5-36.964,1.501-55.445c2-18.481,10-30.469,22.002-38.462
			c7.649-5.094,32.257-13.074,52.604-16.982c13.002-2.498,31.104-20.48,31.104-28.473c0-11.488,0-14.485,0-14.485h75.051
			c0,0,0,2.997,0,14.485c0,7.992,18.102,25.975,31.104,28.473c20.347,3.908,44.954,11.889,52.604,16.982
			c12.002,7.993,20.002,19.981,22.002,38.462c2.001,18.481,0.5,49.949,1.501,55.445c0.468,2.567,6.374,17.158,9.501,37.462
			c2,12.988,1.969,26.916,5.001,32.469c9.001,16.483,17.831,23.465,22.502,42.957c4.249,17.732,12.012,61.412,14.512,82.643
			c1.759,14.94,3.516,21.255,4.651,23.232c2.762,4.791,14.657,7.003,18.792,12.958c4.13,5.955,21.134,32.187,24.436,33.592
			c3.302,1.406-3.343,6.188-10.653,2.218c-4.835-2.616-12.773-13.076-14.604-11.72c-1.83,1.358,0.244,7.706,1.229,13.414
			c0.793,4.617,3.533,15.002,5.764,26.339c1.435,7.291,2.965,14.948,3.504,19.547c0.25,2.123-0.652,3.678-1.947,4.166
			c-1.363,0.519-2.882-0.86-3.647-2.931c-1.741-4.676-4.653-12.586-6.203-17.827c-2.424-8.219-5.271-15.766-7.26-18.33
			c-0.556-0.717-1.649-0.442-1.643,0.242c0.022,3.687,2.052,15.636,4.676,26.118c1.894,7.551,3.625,14.782,4.651,19.641
			c0.615,2.911-0.348,5.155-1.829,5.716c-1.529,0.588-3.544-0.972-4.776-4.168c-1.76-4.583-4.211-11.312-6.314-18.338
			c-2.975-9.948-6.396-22.234-8.31-25.384c-0.337-0.551-1.198-0.408-1.265,0.073c-0.479,3.381,2.125,16.159,4.191,25.098
			c1.282,5.539,2.437,10.617,3.066,14.224c0.499,2.878-0.176,4.83-1.827,5.391c-1.527,0.51-2.979-0.904-3.95-3.328
			c-1.583-3.931-3.85-10.146-5.814-16.659c-2.615-8.651-5.737-18.409-7.332-21.057c-0.303-0.503-1.289-0.237-1.432,0.282
			c-0.824,2.998,1.196,11.865,2.042,16.838c0.683,4.054,1.504,8.191,2.013,11.068c0.291,1.672-0.107,3.445-1.42,3.796
			c-1.428,0.385-2.486-0.593-3.22-2.102c-1.114-2.292-2.652-5.706-4.021-10.206c-5.397-17.806-15.143-50.125-11.015-65.598
			c2.1-7.876-1.057-21.13-6.669-36.251c-10.111-27.245-24.438-53.678-30.88-67.224c-9.502-19.979-11.502-47.952-11.502-47.952
			c-3.501-27.472-22.002-58.942-24-88.411l0.44-5.658l5.103-27.524L349.978,119.234z"/>
	</g>
</g>
<g id="Body__x28_F_x29_">
	<g id="Unselected">
	</g>
	<g id="Selected">
	</g>
	<g id="Features_1_">
	</g>
</g>
<g id="Head">
	<g id="Unselected_1_">
	</g>
	<g id="Selected_1_">
	</g>
	<g id="Features">
	</g>
</g>
</svg>
