<?xml version="1.0" encoding="UTF-8" standalone="no"?>
<svg id="torso" viewBox="0 0 494 462" version="1.1" xmlns="http://www.w3.org/2000/svg" xmlns:xlink="http://www.w3.org/1999/xlink" xmlns:sketch="http://www.bohemiancoding.com/sketch/ns">

<g id="torso">
    <g id="selections">
        <path id="chest_left" fill="#DDC9B2" d="M349.024,133.378c0,0-69.299-38.537-69.299-89.375l-0.099-4.235l-29.543,8.651v173.577
            h1.438c12.409,1.077,24.207,15.954,31.008,35.195c6.592,18.656,27.64,26.649,47.668,26.649l1.927-0.046
            c-2.435-8.545-4.79-17.433-4.79-23.055c0-10.988,16.502-104.896,16.502-104.896L349.024,133.378z"
            />

        <path id="chest_right" fill="#DDC9B2" d="M249.765,48.513l-29.228-8.596l-0.096,4.086c0,50.838-69.299,89.375-69.299,89.375
            H151.1l5.274,22.467c0,0,16.502,93.907,16.502,104.896c0,5.624-2.357,14.517-4.793,23.064l1.887,0.036
            c20.028,0,41.075-7.993,47.668-26.649c6.799-19.241,18.599-34.118,31.009-35.195h1.438V48.419L249.765,48.513z"
            />

        <path id="shoulder_left" fill="#DDC9B2" d="M349.024,133.378h0.043c0,0,7.509,5.39,22.343,5.39
            c14.83,0,23.047-4.163,23.051-4.166c0.021-11.614-0.008-25.915-1.121-36.198c-2-18.481-10-30.47-22.002-38.463
            c-7.649-5.094-32.257-13.074-52.604-16.982c-5.491-1.055-11.888-4.875-17.449-9.533l-21.658,6.343l0.099,4.235
            C279.726,94.841,349.024,133.378,349.024,133.378z"
            />

        <path id="shoulder_right" fill="#DDC9B2" d="M151.1,133.378h0.043c0,0,69.299-38.537,69.299-89.375l0.096-4.086l-21.733-6.391
            c-5.533,4.613-11.876,8.385-17.327,9.432c-20.347,3.908-44.954,11.889-52.604,16.982c-12.001,7.993-20.001,19.98-22.001,38.463
            c-1.114,10.289-1.143,24.603-1.121,36.22c0.459,0.228,8.602,4.145,23.007,4.145C143.591,138.768,151.1,133.378,151.1,133.378z"
            />

        <path id="groin" fill="#DDC9B2" d="M252.147,362.472l-4.999,0.164c-19.405,4.047-19.373,31.898-33.116,31.898l-2.476,0.188
            c0.043,0.891,0.072,1.783,0.072,2.682l34.219,36.488c0,0,2.156,1.204,2.156,1.104c0-1.76,4.203-1.425,4.203,0
            c0,0.061,2.156-1.104,2.156-1.104l34.176-36.488c0-0.906,0.029-1.807,0.073-2.703l-2.477-0.166
            C272.189,394.534,272.431,365.856,252.147,362.472z"
            />

        <path id="abdomen" fill="#DDC9B2" d="M337.337,304.197c-0.488-4.392-2.886-12.241-5.212-20.402l-1.927,0.046
            c-20.028,0-41.076-7.993-47.668-26.649c-6.801-19.241-18.599-34.118-31.008-35.195h-2.876
            c-12.41,1.077-24.21,15.954-31.009,35.195c-6.593,18.656-27.64,26.649-47.668,26.649l-1.887-0.036
            c-2.325,8.157-4.721,16.002-5.209,20.393c-0.278,2.506-1.296,8.468-2.606,16.41l1.69,0.131c0,0,47.611,32.231,49.599,73.983
            l2.476-0.188c13.743,0,13.711-27.852,33.116-31.898l4.999-0.164c20.283,3.385,20.042,32.062,33.988,32.062l2.477,0.166
            c2.003-41.742,49.598-73.962,49.598-73.962l1.567-1.141C338.547,312.16,337.604,306.596,337.337,304.197z"
            />
    </g>

    <g id="Features">
        <path id="left_arm" fill="#EFE5DA" d="M349.067,133.378l-5.23,22.467c2,29.471,20.5,60.94,24.001,88.412
            c0,0,2.001,27.973,11.501,47.953c6.442,13.546,20.769,39.977,30.881,67.223c5.611,15.122,8.769,28.375,6.669,36.25
            c-4.128,15.474,5.616,47.793,11.014,65.599c1.369,4.5,2.907,7.914,4.022,10.205c0.732,1.51,1.792,2.487,3.22,2.102
            c1.312-0.35,1.711-2.123,1.419-3.795c-0.508-2.876-1.329-7.015-2.012-11.068c-0.847-4.973-2.867-13.84-2.042-16.838
            c0.142-0.52,1.128-0.785,1.432-0.282c1.594,2.648,4.717,12.404,7.331,21.057c1.965,6.514,4.232,12.729,5.814,16.659
            c0.973,2.423,2.424,3.837,3.95,3.327c1.652-0.56,2.326-2.512,1.827-5.391c-0.63-3.606-1.783-8.684-3.066-14.223
            c-2.066-8.938-4.67-21.717-4.191-25.098c0.067-0.482,0.928-0.625,1.265-0.073c1.914,3.149,5.336,15.436,8.311,25.384
            c2.104,7.025,4.556,13.754,6.315,18.337c1.231,3.198,3.246,4.757,4.774,4.169c1.481-0.562,2.444-2.805,1.829-5.715
            c-1.026-4.861-2.758-12.09-4.65-19.643c-2.624-10.481-4.653-22.432-4.677-26.118c-0.007-0.685,1.087-0.96,1.643-0.241
            c1.99,2.564,4.837,10.11,7.261,18.33c1.55,5.24,4.461,13.151,6.202,17.827c0.767,2.07,2.285,3.448,3.649,2.931
            c1.293-0.488,2.196-2.043,1.946-4.166c-0.539-4.6-2.07-12.256-3.504-19.547c-2.231-11.337-4.971-21.721-5.764-26.338
            c-0.984-5.709-3.06-12.057-1.229-13.416c1.831-1.355,9.77,9.104,14.604,11.721c7.312,3.969,13.955-0.812,10.654-2.217
            c-3.302-1.406-20.306-27.637-24.437-33.593c-4.135-5.955-16.029-8.167-18.791-12.958c-1.136-1.979-2.893-8.293-4.652-23.232
            c-2.5-21.23-10.262-64.91-14.512-82.643c-4.671-19.492-13.501-26.474-22.501-42.957c-3.031-5.553-3-19.48-5.001-32.469
            c-3.128-20.304-9.034-34.895-9.501-37.462c-0.444-2.438-0.396-9.987-0.379-19.246c0,0-8.218,4.166-23.052,4.166
            S349.067,133.378,349.067,133.378"/>
        <path id="right_arm" fill="#EFE5DA" d="M156.374,155.845c-2,29.471-20.5,60.94-24.001,88.412c0,0-2.001,27.973-11.501,47.953
            c-6.442,13.546-20.769,39.977-30.881,67.223c-5.611,15.122-8.769,28.375-6.669,36.25c4.128,15.474-5.616,47.793-11.014,65.599
            c-1.369,4.5-2.907,7.914-4.022,10.205c-0.732,1.51-1.792,2.487-3.22,2.102c-1.312-0.35-1.711-2.123-1.419-3.795
            c0.508-2.876,1.329-7.015,2.012-11.068c0.847-4.973,2.867-13.84,2.042-16.838c-0.142-0.52-1.128-0.785-1.432-0.282
            c-1.594,2.648-4.717,12.404-7.331,21.057c-1.965,6.514-4.232,12.729-5.814,16.659c-0.973,2.423-2.424,3.837-3.95,3.327
            c-1.652-0.56-2.326-2.512-1.827-5.391c0.63-3.606,1.783-8.684,3.066-14.223c2.066-8.938,4.67-21.717,4.191-25.098
            c-0.067-0.482-0.928-0.625-1.265-0.073c-1.914,3.149-5.336,15.436-8.311,25.384c-2.104,7.025-4.556,13.754-6.315,18.337
            c-1.231,3.198-3.246,4.757-4.774,4.169c-1.481-0.562-2.444-2.805-1.829-5.715c1.026-4.861,2.758-12.09,4.65-19.643
            c2.624-10.481,4.653-22.432,4.677-26.118c0.007-0.685-1.087-0.96-1.643-0.241c-1.99,2.564-4.837,10.11-7.261,18.33
            c-1.55,5.24-4.461,13.151-6.202,17.827c-0.767,2.07-2.285,3.448-3.649,2.931c-1.293-0.488-2.196-2.043-1.946-4.166
            c0.539-4.6,2.07-12.256,3.504-19.547c2.231-11.337,4.971-21.721,5.764-26.338c0.984-5.709,3.06-12.057,1.229-13.416
            c-1.831-1.355-9.77,9.104-14.604,11.721c-7.312,3.969-13.955-0.812-10.654-2.217c3.302-1.406,20.306-27.637,24.437-33.593
            c4.135-5.955,16.029-8.167,18.791-12.958c1.136-1.979,2.893-8.293,4.652-23.232c2.5-21.23,10.262-64.91,14.512-82.643
            c4.671-19.492,13.501-26.474,22.501-42.957c3.031-5.553,3-19.48,5.001-32.469c3.128-20.304,9.034-34.895,9.501-37.462
            c0.444-2.438,0.396-9.987,0.379-19.246c0,0,8.218,4.166,23.052,4.166s22.343-5.39,22.343-5.39L156.374,155.845z"/>
        <path id="neck" fill="#EFE5DA" d="M301.285,33.425c-7.609-6.374-13.654-14.322-13.654-18.939c0-11.488,0-14.485,0-14.485H212.58
            c0,0,0,2.997,0,14.485c0,4.643-6.109,12.65-13.776,19.041l50.961,14.986L301.285,33.425z"/>
        <g id="navel-nipples">
            <ellipse fill="#4C2E02" cx="250.749" cy="298.6" rx="5.746" ry="5.74"/>
            <ellipse fill="#4C2E02" cx="195.752" cy="164.127" rx="5.746" ry="5.74"/>
            <ellipse fill="#4C2E02" cx="305.746" cy="164.127" rx="5.746" ry="5.74"/>
        </g>
        <path id="right_leg" fill="#EFE5DA" d="M339.95,320.644l-0.173-1.046l-1.524,1.141c0,0-49.671,33.618-49.671,76.665
            l-34.219,36.488l-2.156,1.104c0,1.759,9.122,68.004,9.122,68.004h77.508c0,0,9-76.425,9.501-106.394
            C348.697,375.003,343.343,341.2,339.95,320.644"/>
        <path id="right_leg" fill="#EFE5DA" d="M160.261,320.644l0.173-1.046l1.524,1.141c0,0,49.671,33.618,49.671,76.665
            l34.219,36.488l2.156,1.104c0,1.759-9.122,68.004-9.122,68.004h-77.508c0,0-9-76.425-9.501-106.394
            C151.514,375.003,156.868,341.2,160.261,320.644"/>
    </g>
</g>
</svg>
