<?xml version="1.0" encoding="utf-8"?>
<!-- Generator: Adobe Illustrator 16.0.0, SVG Export Plug-In . SVG Version: 6.00 Build 0)  -->
<!DOCTYPE svg PUBLIC "-//W3C//DTD SVG 1.1//EN" "http://www.w3.org/Graphics/SVG/1.1/DTD/svg11.dtd">
<svg version="1.1" xmlns="http://www.w3.org/2000/svg" xmlns:xlink="http://www.w3.org/1999/xlink" x="0px" y="0px" width="282px"
	 height="282px" viewBox="0 0 500 498" enable-background="new 0 0 500 498" xml:space="preserve">

<g id="arms">
	<g id="selections">
		<path id="bicep_right" fill="#DDC9B2" d="M168.912,122.754c0.314-2.694,0.666-5.4,1.079-8.079
			c4.499-29.216,12.999-50.212,13.67-53.905c0.709-3.891,0.344-17.382,0.339-32.692c0,0,31.889,10.771,68.519,0.782l4.332,33.907
			l0.202,0.876c-1.67,24.605-11.332,50.179-20.134,75.036c-4.827-3.125-29.3-18.415-48.226-19.909
			C177.654,117.898,171.412,121.057,168.912,122.754z"
			/>

		<path id="elbow_right" fill="#DDC9B2" d="M142.613,193.382c6.018-10.037,13.061-18.947,20.181-31.987
			c3.737-6.845,4.24-22.534,6.118-38.641c2.5-1.697,8.742-4.855,19.781-3.984c18.926,1.494,43.398,16.784,48.226,19.909
			c-6.368,17.982-12.287,35.591-14.401,52.184c0,0-1.04,14.526-4.833,32.357c-5.547-0.146-28.363-1.177-46.751-8.435
			C152.866,207.653,144.61,196.449,142.613,193.382z"
			/>

		<path id="forearm_right" fill="#DDC9B2" d="M130.417,223.207c3.026-12.628,7.268-21.604,12.196-29.825
			c1.997,3.067,10.253,14.271,28.32,21.403c18.388,7.258,41.204,8.289,46.751,8.435c-2.521,11.853-6.259,25.164-11.718,36.645
			c-6.791,14.278-19.67,38.513-31.793,65.865c-31.402-5.266-54.693-18.795-59.12-21.504
			C119.898,274.458,126.301,240.381,130.417,223.207z"
			/>

		<path id="wrist_right" fill="#DDC9B2" d="M102.411,376.215c0.156-0.217,0.301-0.437,0.43-0.661c1.635-2.848,4.163-11.933,6.695-33.43
			c1.176-9.988,3.164-23.438,5.518-37.898c4.427,2.709,27.718,16.238,59.12,21.504c-4.426,9.983-8.751,20.379-12.642,30.862
			c-5.323,14.348-9.095,27.508-10.191,38.069C121.146,403.136,104.727,379.805,102.411,376.215z"
			/>

		<path id="hand_right" fill="#DDC9B2" d="M40.64,442.537c4.75-2.023,29.218-39.768,35.163-48.338
			c5.755-8.289,21.962-11.538,26.608-17.984c2.315,3.59,18.734,26.921,48.93,18.446c-0.566,5.457-0.433,10.231,0.597,14.092
			c5.938,22.267-8.083,68.771-15.849,94.393c-1.971,6.476-4.184,11.388-5.788,14.685c-1.054,2.172-2.579,3.579-4.633,3.024
			c-1.889-0.504-2.463-3.055-2.043-5.462c0.731-4.138,1.913-10.094,2.895-15.926c1.219-7.156,4.126-19.916,2.939-24.229
			c-0.203-0.747-1.623-1.13-2.061-0.405c-2.293,3.81-6.786,17.85-10.548,30.301c-2.827,9.371-6.091,18.314-8.368,23.97
			c-1.398,3.485-3.486,5.52-5.683,4.788c-2.378-0.806-3.349-3.614-2.63-7.758c0.906-5.188,2.565-12.494,4.412-20.465
			c2.974-12.861,6.72-31.249,6.031-36.114c-0.098-0.693-1.335-0.899-1.818-0.106c-2.756,4.533-7.68,22.212-11.96,36.526
			c-3.026,10.109-6.555,19.791-9.087,26.385c-1.771,4.603-4.671,6.846-6.87,5.999c-2.132-0.807-3.518-4.034-2.632-8.223
			c1.476-6.995,3.969-17.395,6.691-28.264c3.776-15.082,6.695-32.278,6.73-37.582c0.008-0.985-1.564-1.383-2.364-0.348
			c-2.863,3.69-6.961,14.549-10.448,26.376c-2.229,7.539-6.418,18.923-8.924,25.651c-1.104,2.979-3.289,4.961-5.251,4.217
			c-1.861-0.701-3.161-2.938-2.801-5.993c0.776-6.619,2.979-17.637,5.041-28.128c3.211-16.312,7.153-31.255,8.294-37.898
			c1.416-8.214,4.403-17.35,1.77-19.305c-2.635-1.949-14.058,13.102-21.015,16.865C45.449,451.438,35.89,444.56,40.64,442.537z"
			/>
	</g>

 	<g id="Features">
		<path id="body" fill="#EFE5DA" d="M184,28.077C183.996,19.101,184.043,9.29,184.352,0H500v555h-93.124
			c-3.064-22.408-12.13-88.849-12.13-90.554c0-2.05-6.046-2.532-6.046,0c0,2.102-9.055,68.212-12.124,90.554H263.201
			c-2.885-25.254-12.219-109.369-12.828-145.793c-0.718-43.126,14.392-120.031,15.83-132.97
			c1.439-12.938,14.392-46.717,14.392-62.533c0-15.812-23.744-150.938-23.744-150.938l-0.203-0.876l-4.129-33.031
			C215.889,38.85,184,28.077,184,28.077z"/>
		<g id="navel-nipples_1_">
			<ellipse opacity="0.4" fill="#B2784F" cx="392.438" cy="290.302" rx="6.378" ry="6.372"/>
			<ellipse opacity="0.4" fill="#B2784F" cx="315.406" cy="69.107" rx="6.378" ry="6.372"/>
			<ellipse opacity="0.4" fill="#B2784F" cx="469.469" cy="69.107" rx="6.378" ry="6.372"/>
		</g>
	</g>
</g>
</svg>
